<?xml version="1.0" encoding="UTF-8" standalone="no"?><!DOCTYPE svg PUBLIC "-//W3C//DTD SVG 1.1//EN" "http://www.w3.org/Graphics/SVG/1.1/DTD/svg11.dtd"><svg width="100%" height="100%" viewBox="0 0 780 700" version="1.1" xmlns="http://www.w3.org/2000/svg" xmlns:xlink="http://www.w3.org/1999/xlink" xml:space="preserve" xmlns:serif="http://www.serif.com/" style="fill-rule:evenodd;clip-rule:evenodd;stroke-linecap:round;stroke-linejoin:round;stroke-miterlimit:1.5;"><g id="Layer1"><path d="M657.865,439.514c0,-0 -0.573,-3.494 -2.569,-4.537c-18.734,-9.793 -23.134,16.421 -74.308,17.496c-48.602,1.021 -72.219,-22.113 -74.945,-23.483c-3.684,-1.852 -47.947,12.894 -90.945,-9.453c-45.155,-23.468 -54.108,-57.695 -56.194,-60.89c-2.768,-4.243 -43.213,-14.84 -61.449,-55.755c-17.343,-38.912 -0.833,-68.775 -0.726,-71.987c0.11,-3.311 -28.478,-26.906 -28.758,-64.748c-0.406,-54.975 31.733,-62.152 18.666,-79.222c-0.233,-0.304 -2.365,-1.69 -4.499,-1.979l-126.248,-0c-71.732,-0 -129.969,58.236 -129.969,129.968l0,329.466c0,71.731 58.237,129.968 129.969,129.968l74.293,0c12.769,0 23.122,-10.352 23.122,-23.122c-0,-13.771 -0,-31.383 -0,-46.137c-0,-7.799 3.098,-15.279 8.613,-20.794c5.515,-5.515 12.995,-8.613 20.794,-8.613c34.049,-0 89.803,-0 123.852,-0c7.799,-0 15.279,3.098 20.794,8.613c5.515,5.515 8.613,12.995 8.613,20.794c0,14.754 0,32.366 0,46.137c0,12.77 10.352,23.122 23.122,23.122c27.231,0 68.804,0 68.804,0c71.731,0 129.968,-58.237 129.968,-129.968l0,-104.876Z" style="fill:none;stroke:#000;stroke-width:29.39px;"/></g><g id="Layer11" serif:id="Layer1"><path d="M242.347,670.914c-0,0 73.257,-42.659 101.968,-59.377c7.037,-4.098 11.4,-11.596 11.485,-19.739c0.071,-6.826 0.144,-13.76 0.144,-13.76" style="fill:none;stroke:#000;stroke-width:29.39px;"/><path d="M703.283,590.623c32.312,-23.654 53.312,-61.863 53.312,-104.937l-0,-104.876c-0,-0 -0.573,-3.494 -2.57,-4.537c-18.734,-9.793 -23.134,16.421 -74.308,17.496c-48.601,1.021 -72.219,-22.113 -74.945,-23.483c-3.684,-1.852 -47.947,12.894 -90.945,-9.453c-45.155,-23.468 -54.108,-57.695 -56.194,-60.89c-2.768,-4.243 -43.212,-14.84 -61.448,-55.755c-17.344,-38.912 -0.834,-68.775 -0.727,-71.987c0.11,-3.311 -28.478,-26.906 -28.757,-64.748c-0.407,-54.975 31.732,-62.151 18.665,-79.221c-0.232,-0.304 -2.365,-1.69 -4.499,-1.98l-126.248,-0c-29.99,-0 -66.411,14.134 -88.413,31.224" style="fill:none;stroke:#000;stroke-width:29.39px;"/></g><g id="Layer2"><path d="M363.834,358.289l88.401,-51.862" style="fill:none;stroke:#000;stroke-width:29.39px;"/><path d="M608.547,646.564l88.982,-52.203" style="fill:none;stroke:#000;stroke-width:29.39px;"/><path d="M641.501,434.956l88.401,-51.862" style="fill:none;stroke:#000;stroke-width:29.39px;"/><path d="M499.834,427.622l88.401,-51.862" style="fill:none;stroke:#000;stroke-width:29.39px;"/><path d="M298.501,230.289l88.401,-51.862" style="fill:none;stroke:#000;stroke-width:29.39px;"/><path d="M298.437,86.622l86.401,-45.862" style="fill:none;stroke:#000;stroke-width:29.39px;"/><path d="M99.834,96.956l87.401,-52.862" style="fill:none;stroke:#000;stroke-width:29.39px;"/></g></svg>